<svg xmlns="http://www.w3.org/2000/svg" viewBox="0 0 200 280" width="200" height="280">
  <rect width="200" height="280" fill="#F2EAE8"/>
  <!-- Corps flacon -->
  <rect x="65" y="100" width="70" height="130" rx="8" fill="#E8D5D0" stroke="#C4485A" stroke-width="1.5"/>
  <!-- Épaules -->
  <path d="M65 110 Q65 100 75 100 L125 100 Q135 100 135 110" fill="#E8D5D0" stroke="#C4485A" stroke-width="1.5"/>
  <!-- Col -->
  <rect x="85" y="70" width="30" height="35" rx="4" fill="#E8D5D0" stroke="#C4485A" stroke-width="1.5"/>
  <!-- Tête pompe -->
  <rect x="78" y="55" width="44" height="18" rx="9" fill="#C4485A"/>
  <!-- Tube pompe -->
  <rect x="97" y="40" width="6" height="20" rx="3" fill="#C4485A"/>
  <!-- Bec -->
  <path d="M103 47 L118 40 L120 44 L105 51Z" fill="#C4485A"/>
  <!-- Label -->
  <rect x="72" y="125" width="56" height="70" rx="3" fill="white" opacity="0.7"/>
  <text x="100" y="148" font-family="Georgia,serif" font-size="7" font-weight="bold" fill="#1A1614" text-anchor="middle">COSRX</text>
  <line x1="78" y1="153" x2="122" y2="153" stroke="#C4485A" stroke-width="0.8"/>
  <text x="100" y="165" font-family="Georgia,serif" font-size="5.5" fill="#1A1614" text-anchor="middle">Niacinamide 15% </text>
  <text x="100" y="177" font-family="Georgia,serif" font-size="5" fill="#C4485A" text-anchor="middle">Face Serum</text>
  <!-- Base -->
  <ellipse cx="100" cy="230" rx="35" ry="5" fill="#C4485A" opacity="0.3"/>
</svg>